<?xml version="1.0" encoding="utf-8"?>
<!-- Generator: Adobe Illustrator 24.0.2, SVG Export Plug-In . SVG Version: 6.00 Build 0)  -->
<svg version="1.1" id="图层_1" xmlns="http://www.w3.org/2000/svg" xmlns:xlink="http://www.w3.org/1999/xlink" x="0px" y="0px"
	 viewBox="0 0 48.2 42" style="enable-background:new 0 0 48.2 42;" xml:space="preserve">
<style type="text/css">
	.st0{clip-path:url(#SVGID_2_);}
	.st1{fill:#1FB5C9;}
	.st2{opacity:0.5;fill:url(#SVGID_3_);enable-background:new    ;}
	.st3{fill:#FFFFFF;}
	.st4{fill:#E27979;}
	.st5{fill:#E61F19;}
</style>
<g>
	<defs>
		<rect id="SVGID_1_" width="48.2" height="42"/>
	</defs>
	<clipPath id="SVGID_2_">
		<use xlink:href="#SVGID_1_"  style="overflow:visible;"/>
	</clipPath>
	<g class="st0">
		<path class="st1" d="M14,41.3c-0.4,0.6-1,0.9-1.5,0.6c-0.5-0.3-0.6-1-0.3-1.6l15.3-27.1c0.4-0.6,1-0.9,1.5-0.6
			c0.5,0.3,0.6,1,0.3,1.6L17.7,34.6L14,41.3z"/>
		<path class="st1" d="M44.4,5.6c-2.1,0.7-7.9,2.6-8.7,2.8V6.9c0-3.8-3.1-6.9-6.9-6.9h-22C3.1,0,0,3.1,0,6.9v17.8
			c0,3.8,3.1,6.9,6.9,6.9h22c3.8,0,6.9-3.1,6.9-6.9v-2.7c0,0,6,2.6,8.4,3.6c1.8,0.8,3.9-0.5,4-2.5c0,0,0-0.1,0-0.1V8.4
			c0-0.6-0.2-1.2-0.5-1.7C47,5.7,45.6,5.2,44.4,5.6z"/>
		
			<linearGradient id="SVGID_3_" gradientUnits="userSpaceOnUse" x1="15.4012" y1="8.902" x2="14.9251" y2="0.6334" gradientTransform="matrix(1 0 0 -1 0 41.8898)">
			<stop  offset="0.2493" style="stop-color:#231815;stop-opacity:4.274900e-02"/>
			<stop  offset="1" style="stop-color:#000000"/>
		</linearGradient>
		<path class="st2" d="M12.1,40.4l4.1-7.4l2,0.7L14,41.2L12.1,40.4z"/>
		<path class="st3" d="M17.7,5.6c5.6,0,10.1,4.5,10.1,10.1s-4.5,10.1-10.1,10.1c-5.6,0-10.1-4.5-10.1-10.1S12,5.6,17.7,5.6z"/>
		<path class="st4" d="M17.7,4.9c-6,0-10.8,4.9-10.8,10.8c0,6,4.9,10.8,10.8,10.8s10.8-4.9,10.8-10.8C28.5,9.8,23.6,4.9,17.7,4.9z
			 M17.7,25.2c-5.2,0-9.4-4.2-9.4-9.4s4.2-9.4,9.4-9.4s9.4,4.2,9.4,9.4S22.9,25.2,17.7,25.2z"/>
		<path class="st5" d="M17.7,22c3.5,0,6.3-2.8,6.3-6.3c0-3.5-2.8-6.3-6.3-6.3c-3.5,0-6.3,2.8-6.3,6.3C11.4,19.2,14.2,22,17.7,22z"/>
		<path class="st1" d="M29.2,40.4c0,0-0.1-0.2-0.2-0.2c-1.7-1.9-4.8-3.2-8.4-3.2c-3.6,0-6.7,1.3-8.4,3.2c-0.1,0.1-0.1,0.2-0.2,0.2
			c-0.1,0.2-0.2,0.3-0.2,0.5c0,0.6,0.5,1,1,1c0.3,0,0.6-0.2,0.9-0.5C15,40,17.6,39,20.6,39c3,0,5.6,1,6.8,2.5
			c0.3,0.4,0.6,0.5,0.9,0.5c0.6,0,1-0.5,1-1C29.3,40.7,29.3,40.7,29.2,40.4z"/>
	</g>
</g>
</svg>
