<?xml version="1.0" encoding="utf-8"?>
<!-- Generator: Adobe Illustrator 24.0.2, SVG Export Plug-In . SVG Version: 6.00 Build 0)  -->
<svg version="1.1" id="图层_1" xmlns="http://www.w3.org/2000/svg" xmlns:xlink="http://www.w3.org/1999/xlink" x="0px" y="0px"
	 viewBox="0 0 33.1 50" style="enable-background:new 0 0 33.1 50;" xml:space="preserve">
<style type="text/css">
	.st0{opacity:0.8;fill:url(#SVGID_1_);enable-background:new    ;}
	.st1{fill:#1FB5C9;}
	.st2{fill:none;stroke:#1FB5C9;stroke-width:4;stroke-linecap:round;stroke-linejoin:round;stroke-miterlimit:10;}
</style>
<linearGradient id="SVGID_1_" gradientUnits="userSpaceOnUse" x1="16.5057" y1="17.9175" x2="16.5057" y2="-0.1627" gradientTransform="matrix(1 0 0 -1 0 49.8898)">
	<stop  offset="0" style="stop-color:#FFFFFF;stop-opacity:0.5"/>
	<stop  offset="1" style="stop-color:#1FB5C9"/>
</linearGradient>
<path class="st0" d="M14.1,33.5L9,46.4C8.3,48.1,9.6,50,11.5,50h10.1c1.9,0,3.2-1.9,2.4-3.6l-5-12.8C18.2,31.2,14.9,31.2,14.1,33.5z
	"/>
<path class="st1" d="M16.6,18.9c1.8,0,3.3-1.5,3.3-3.3c0-1.8-1.5-3.3-3.3-3.3c-1.8,0-3.3,1.5-3.3,3.3C13.3,17.4,14.8,18.9,16.6,18.9
	z"/>
<path class="st2" d="M16.6,36.1c-5.3,0-9.6-4.3-9.6-9.6V11.6C7,6.3,11.2,2,16.6,2c5.3,0,9.6,4.3,9.6,9.6v14.9
	C26.2,31.8,21.9,36.1,16.6,36.1z"/>
<path class="st2" d="M31.1,31.6c0,5-5.7,9.2-10.8,9.2h-7.6c-5,0-10.7-4.1-10.7-9.2"/>
</svg>
