<?xml version="1.0" encoding="utf-8"?>
<!-- Generator: Adobe Illustrator 24.0.2, SVG Export Plug-In . SVG Version: 6.00 Build 0)  -->
<svg version="1.1" id="图层_1" xmlns="http://www.w3.org/2000/svg" xmlns:xlink="http://www.w3.org/1999/xlink" x="0px" y="0px"
	 viewBox="0 0 41.4 12" style="enable-background:new 0 0 41.4 12;" xml:space="preserve">
<style type="text/css">
	.st0{fill:#E61F19;}
</style>
<path class="st0" d="M20.3,1c0.9,0,1.6,0.1,2.1,0.3c0.6,0.2,1,0.5,1.3,1c0.3,0.4,0.4,1,0.4,1.6c0,0.5-0.1,0.9-0.3,1.3
	c-0.2,0.3-0.4,0.6-0.7,0.9c-0.3,0.2-0.6,0.4-1,0.5L25,11h-1.9l-2.4-4h-1.6v4h-1.6V1H20.3z M20.2,2.4h-1.1v3.3h1.1
	c0.8,0,1.3-0.1,1.7-0.4c0.3-0.3,0.5-0.7,0.5-1.3c0-0.6-0.2-1-0.6-1.2C21.5,2.5,21,2.4,20.2,2.4z M32.1,11h-5.7V1h5.7v1.4h-4v2.7h3.8
	v1.4h-3.8v3.1h4V11z M38.5,2.3c-0.5,0-0.9,0.1-1.3,0.3c-0.4,0.2-0.7,0.4-1,0.8C36,3.6,35.8,4,35.7,4.5c-0.1,0.5-0.2,1-0.2,1.6
	c0,0.8,0.1,1.4,0.3,2c0.2,0.6,0.6,1,1,1.3c0.4,0.3,1,0.4,1.7,0.4c0.4,0,0.8,0,1.2-0.1c0.4-0.1,0.8-0.2,1.2-0.3v1.4
	c-0.4,0.2-0.8,0.3-1.2,0.3c-0.4,0.1-0.9,0.1-1.4,0.1c-1,0-1.9-0.2-2.5-0.6c-0.7-0.4-1.2-1-1.5-1.8C33.9,7.9,33.8,7,33.8,6
	c0-0.8,0.1-1.4,0.3-2.1c0.2-0.6,0.5-1.2,0.9-1.6c0.4-0.5,0.9-0.8,1.5-1.1c0.6-0.3,1.3-0.4,2-0.4c0.5,0,1,0.1,1.5,0.2
	c0.5,0.1,0.9,0.3,1.4,0.5l-0.6,1.4c-0.3-0.2-0.7-0.3-1.1-0.4C39.3,2.3,38.9,2.3,38.5,2.3z"/>
<circle class="st0" cx="6" cy="6" r="6"/>
</svg>
