<?xml version="1.0" encoding="utf-8"?>
<!-- Generator: Adobe Illustrator 24.0.2, SVG Export Plug-In . SVG Version: 6.00 Build 0)  -->
<svg version="1.1" id="图层_1" xmlns="http://www.w3.org/2000/svg" xmlns:xlink="http://www.w3.org/1999/xlink" x="0px" y="0px"
	 viewBox="0 0 26 26" style="enable-background:new 0 0 26 26;" xml:space="preserve">
<style type="text/css">
	.st0{fill:#FFFFFF;}
	.st1{fill:#E27979;}
	.st2{fill:#E61F19;}
</style>
<path class="st0" d="M13,0.8c6.7,0,12.2,5.4,12.2,12.2c0,6.7-5.4,12.2-12.2,12.2C6.3,25.2,0.8,19.7,0.8,13C0.8,6.3,6.3,0.8,13,0.8z"
	/>
<path class="st1" d="M13,0C5.8,0,0,5.8,0,13c0,7.2,5.8,13,13,13s13-5.8,13-13C26,5.8,20.2,0,13,0z M13,24.3
	C6.8,24.3,1.7,19.2,1.7,13C1.7,6.8,6.8,1.7,13,1.7c6.2,0,11.3,5.1,11.3,11.3C24.3,19.2,19.2,24.3,13,24.3z"/>
<path class="st2" d="M13,20.5c4.1,0,7.5-3.4,7.5-7.5c0-4.1-3.4-7.5-7.5-7.5c-4.1,0-7.5,3.4-7.5,7.5C5.5,17.1,8.9,20.5,13,20.5z"/>
</svg>
