<?xml version="1.0" encoding="utf-8"?>
<!-- Generator: Adobe Illustrator 24.0.2, SVG Export Plug-In . SVG Version: 6.00 Build 0)  -->
<svg version="1.1" id="图层_1" xmlns="http://www.w3.org/2000/svg" xmlns:xlink="http://www.w3.org/1999/xlink" x="0px" y="0px"
	 viewBox="0 0 39.3 46" style="enable-background:new 0 0 39.3 46;" xml:space="preserve">
<style type="text/css">
	.st0{opacity:0.8;fill:url(#SVGID_1_);enable-background:new    ;}
	.st1{fill:none;stroke:#022125;stroke-width:4;stroke-linecap:round;stroke-linejoin:round;stroke-miterlimit:10;}
	.st2{fill:#1FB5C9;}
</style>
<linearGradient id="SVGID_1_" gradientUnits="userSpaceOnUse" x1="19.6169" y1="19.9865" x2="19.6169" y2="-0.1254" gradientTransform="matrix(1 0 0 -1 0 45.8898)">
	<stop  offset="0" style="stop-color:#FFFFFF;stop-opacity:0.5"/>
	<stop  offset="1" style="stop-color:#1FB5C9"/>
</linearGradient>
<path class="st0" d="M16.7,27.4L8.9,41c-1.3,2.2,0.4,5,2.9,5h15.7c2.6,0,4.1-2.8,2.9-5l-7.8-13.6C21.2,25.2,18,25.2,16.7,27.4z"/>
<path class="st1" d="M19.6,37.3c9.7,0,17.6-7.9,17.6-17.6C37.3,9.9,29.4,2,19.6,2C9.9,2,2,9.9,2,19.6C2,29.4,9.9,37.3,19.6,37.3z"/>
<path class="st2" d="M19.6,25.8c3.4,0,6.2-2.8,6.2-6.2s-2.8-6.2-6.2-6.2s-6.2,2.8-6.2,6.2S16.2,25.8,19.6,25.8z"/>
</svg>
